<svg width="22" height="16" viewBox="0 0 22 16" fill="none" xmlns="http://www.w3.org/2000/svg">
<path d="M18.2744 1.32631C16.9365 0.71242 15.5017 0.260131 14.0017 0.00108666C13.9743 -0.00391282 13.9471 0.00858115 13.933 0.0335697C13.7485 0.361747 13.5441 0.789881 13.401 1.12639C11.7875 0.884845 10.1824 0.884845 8.60201 1.12639C8.45886 0.782401 8.24705 0.361747 8.06171 0.0335697C8.04764 0.00941489 8.02035 -0.00307908 7.99303 0.00108666C6.49378 0.259303 5.05906 0.711592 3.72032 1.32631C3.70873 1.33131 3.6988 1.33965 3.6922 1.35047C0.970858 5.4161 0.225367 9.3818 0.59108 13.2983C0.592735 13.3175 0.603491 13.3358 0.618385 13.3475C2.41385 14.666 4.15307 15.4665 5.85999 15.9971C5.88731 16.0054 5.91625 15.9954 5.93363 15.9729C6.33741 15.4215 6.69733 14.8401 7.00594 14.2287C7.02415 14.1929 7.00676 14.1504 6.96954 14.1363C6.39864 13.9197 5.85502 13.6557 5.3321 13.3558C5.29074 13.3317 5.28743 13.2725 5.32548 13.2442C5.43552 13.1617 5.54559 13.0759 5.65066 12.9893C5.66968 12.9735 5.69617 12.9701 5.71852 12.9801C9.15388 14.5486 12.8731 14.5486 16.2679 12.9801C16.2902 12.9693 16.3167 12.9726 16.3366 12.9885C16.4417 13.0751 16.5517 13.1617 16.6626 13.2442C16.7006 13.2725 16.6982 13.3317 16.6568 13.3558C16.1339 13.6615 15.5903 13.9197 15.0185 14.1354C14.9813 14.1496 14.9647 14.1929 14.983 14.2287C15.2982 14.8393 15.6581 15.4207 16.0544 15.9721C16.071 15.9954 16.1008 16.0054 16.1281 15.9971C17.8433 15.4665 19.5825 14.666 21.3779 13.3475C21.3937 13.3358 21.4036 13.3183 21.4053 13.2992C21.843 8.77122 20.6722 4.83804 18.3017 1.3513C18.2959 1.33965 18.286 1.33131 18.2744 1.32631ZM7.51895 10.9136C6.48467 10.9136 5.63245 9.96403 5.63245 8.79789C5.63245 7.63175 6.46814 6.6822 7.51895 6.6822C8.57801 6.6822 9.42198 7.64009 9.40542 8.79789C9.40542 9.96403 8.56973 10.9136 7.51895 10.9136ZM14.494 10.9136C13.4597 10.9136 12.6075 9.96403 12.6075 8.79789C12.6075 7.63175 13.4431 6.6822 14.494 6.6822C15.553 6.6822 16.397 7.64009 16.3805 8.79789C16.3805 9.96403 15.553 10.9136 14.494 10.9136Z" fill="#444EF2"/>
</svg>
