<svg width="21" height="16" viewBox="0 0 21 16" fill="none" xmlns="http://www.w3.org/2000/svg">
<path fill-rule="evenodd" clip-rule="evenodd" d="M20.5212 1.89414C19.7662 2.21529 18.955 2.43237 18.1032 2.52979C18.9723 2.02992 19.6401 1.2383 19.9541 0.295577C19.1407 0.758374 18.2394 1.09486 17.2808 1.27538C16.513 0.490923 15.4188 0 14.2078 0C11.8829 0 9.99768 1.80823 9.99768 4.03938C9.99768 4.35566 10.035 4.66428 10.1069 4.96011C6.60782 4.79161 3.50578 3.18333 1.42923 0.739197C1.06679 1.33598 0.85919 2.03017 0.85919 2.77014C0.85919 4.17157 1.60245 5.40757 2.73214 6.13219C2.04218 6.11097 1.39299 5.92917 0.825345 5.62695C0.824812 5.64383 0.824812 5.66045 0.824812 5.67783C0.824812 7.63436 2.2759 9.26694 4.20161 9.63846C3.8485 9.73025 3.47674 9.77985 3.09271 9.77985C2.82115 9.77985 2.55758 9.75479 2.30041 9.70749C2.83607 11.3119 4.39083 12.4802 6.23313 12.5129C4.79217 13.596 2.97705 14.2421 1.00443 14.2421C0.664647 14.2421 0.329658 14.2232 0 14.1856C1.86309 15.3316 4.07609 16 6.45352 16C14.1974 16 18.4321 9.84531 18.4321 4.50805C18.4321 4.33316 18.4278 4.15853 18.4198 3.98491C19.243 3.41575 19.957 2.70417 20.5212 1.89414Z" fill="#4A90E2"/>
</svg>
