<svg width="200" height="200" viewBox="0 0 200 200" fill="none" xmlns="http://www.w3.org/2000/svg">
<rect x="10" y="10" width="180" height="180" fill="white" stroke="#00FF0A" stroke-width="20"/>
<rect x="160" y="20" width="20" height="20" fill="black"/>
<rect x="40" y="60" width="20" height="20" fill="black"/>
<rect x="60" y="60" width="20" height="20" fill="black"/>
<rect x="80" y="60" width="20" height="20" fill="black"/>
<rect x="60" y="80" width="20" height="20" fill="black"/>
<rect x="60" y="100" width="20" height="20" fill="black"/>
<rect x="60" y="120" width="20" height="20" fill="black"/>
<rect x="109" y="60" width="20" height="20" fill="black"/>
<rect x="129" y="60" width="20" height="20" fill="black"/>
<rect x="139" y="60" width="20" height="20" fill="black"/>
<rect x="109" y="80" width="20" height="20" fill="black"/>
<rect x="109" y="100" width="20" height="20" fill="black"/>
<rect x="125" y="90" width="20" height="20" fill="black"/>
<rect x="109" y="120" width="20" height="20" fill="black"/>
</svg>
