<svg width="155" height="40" viewBox="0 0 155 40" fill="none" xmlns="http://www.w3.org/2000/svg">
<rect x="5" y="5" width="145" height="30" fill="#C4C4C4"/>
<path d="M0 0H155V40H0V0Z" fill="white"/>
<path fill-rule="evenodd" clip-rule="evenodd" d="M150 5H5V35H150V5ZM0 0V40H155V0H0Z" fill="#00FF0A"/>
<rect x="80" y="10" width="5" height="5" fill="black"/>
<rect x="85" y="10" width="5" height="5" fill="black"/>
<rect x="87.5" y="10" width="5" height="5" fill="black"/>
<rect x="80" y="15" width="5" height="5" fill="black"/>
<rect x="80" y="20" width="5" height="5" fill="black"/>
<rect x="84" y="17.5" width="5" height="5" fill="black"/>
<rect x="80" y="25" width="5" height="5" fill="black"/>
<rect x="93.75" y="10" width="5" height="5" fill="black"/>
<rect x="93.75" y="15" width="5" height="5" fill="black"/>
<rect x="93.75" y="20" width="5" height="5" fill="black"/>
<rect x="93.75" y="25" width="5" height="5" fill="black"/>
<rect x="102.25" y="25" width="5" height="5" fill="black"/>
<rect x="98.75" y="25" width="5" height="5" fill="black"/>
<rect x="102.25" y="17.25" width="5" height="5" fill="black"/>
<rect x="102.25" y="14.75" width="5" height="5" fill="black"/>
<rect x="102.25" y="22.25" width="5" height="5" fill="black"/>
<rect x="98.75" y="10" width="5" height="5" fill="black"/>
<rect x="102.25" y="10" width="5" height="5" fill="black"/>
<rect x="123.5" y="10" width="5" height="5" fill="black"/>
<rect x="123.5" y="15" width="5" height="5" fill="black"/>
<rect x="123.5" y="20" width="5" height="5" fill="black"/>
<rect x="123.5" y="25" width="5" height="5" fill="black"/>
<rect x="133.5" y="23.5" width="5" height="5" fill="black"/>
<rect x="133.5" y="25" width="5" height="5" fill="black"/>
<rect x="133.5" y="19.75" width="5" height="5" fill="black"/>
<rect x="128.5" y="17.25" width="5" height="5" fill="black"/>
<rect x="133.5" y="12.5" width="5" height="5" fill="black"/>
<rect x="133.5" y="10" width="5" height="5" fill="black"/>
<rect x="109" y="10" width="5" height="5" fill="black"/>
<rect x="109" y="15" width="5" height="5" fill="black"/>
<rect x="109" y="20" width="5" height="5" fill="black"/>
<rect x="109" y="25" width="5" height="5" fill="black"/>
<rect x="117.5" y="25" width="5" height="5" fill="black"/>
<rect x="114" y="25" width="5" height="5" fill="black"/>
<rect x="10" y="10" width="5" height="5" fill="black"/>
<rect x="15" y="10" width="5" height="5" fill="black"/>
<rect x="20" y="10" width="5" height="5" fill="black"/>
<rect x="15" y="15" width="5" height="5" fill="black"/>
<rect x="15" y="20" width="5" height="5" fill="black"/>
<rect x="15" y="25" width="5" height="5" fill="black"/>
<rect x="26.5" y="10" width="5" height="5" fill="black"/>
<rect x="26.5" y="15" width="5" height="5" fill="black"/>
<rect x="26.5" y="20" width="5" height="5" fill="black"/>
<rect x="26.5" y="25" width="5" height="5" fill="black"/>
<rect x="35" y="25" width="5" height="5" fill="black"/>
<rect x="31.5" y="25" width="5" height="5" fill="black"/>
<rect x="31.5" y="17.25" width="5" height="5" fill="black"/>
<rect x="31.5" y="10" width="5" height="5" fill="black"/>
<rect x="35" y="10" width="5" height="5" fill="black"/>
<rect x="41.5" y="10" width="5" height="5" fill="black"/>
<rect x="41.5" y="15" width="5" height="5" fill="black"/>
<rect x="41.5" y="20" width="5" height="5" fill="black"/>
<rect x="41.5" y="25" width="5" height="5" fill="black"/>
<rect x="56.75" y="10" width="5" height="5" fill="black"/>
<rect x="56.75" y="15" width="5" height="5" fill="black"/>
<rect x="56.75" y="20" width="5" height="5" fill="black"/>
<rect x="56.75" y="25" width="5" height="5" fill="black"/>
<rect x="66.75" y="10" width="5" height="5" fill="black"/>
<rect x="66.75" y="15" width="5" height="5" fill="black"/>
<rect x="66.75" y="20" width="5" height="5" fill="black"/>
<rect x="61.75" y="17.5" width="5" height="5" fill="black"/>
<rect x="66.75" y="25" width="5" height="5" fill="black"/>
<rect x="50" y="25" width="5" height="5" fill="black"/>
<rect x="46.5" y="25" width="5" height="5" fill="black"/>
<rect x="46.5" y="10" width="5" height="5" fill="black"/>
<rect x="50" y="10" width="5" height="5" fill="black"/>
<rect x="145" y="5" width="5" height="5" fill="black"/>
</svg>
